<mxfile host="app.diagrams.net" modified="2022-07-12T13:21:14.255Z" agent="5.0 (Macintosh; Intel Mac OS X 10_15_7) AppleWebKit/537.36 (KHTML, like Gecko) Chrome/103.0.0.0 Safari/537.36" etag="Ln_uFbIB9Yy9tTjRYy45" version="20.0.4" type="github">
  <diagram id="TGwFEfaLPlAXyuqBuNW3" name="Page-1">
    <mxGraphModel dx="1374" dy="665" grid="1" gridSize="10" guides="1" tooltips="1" connect="1" arrows="1" fold="1" page="1" pageScale="1" pageWidth="827" pageHeight="1169" math="0" shadow="0">
      <root>
        <mxCell id="0" />
        <mxCell id="1" parent="0" />
        <mxCell id="P7dvDb_oB8FZLkc3y2Xe-1" value="VPC" style="points=[[0,0],[0.25,0],[0.5,0],[0.75,0],[1,0],[1,0.25],[1,0.5],[1,0.75],[1,1],[0.75,1],[0.5,1],[0.25,1],[0,1],[0,0.75],[0,0.5],[0,0.25]];outlineConnect=0;gradientColor=none;html=1;whiteSpace=wrap;fontSize=12;fontStyle=0;container=1;pointerEvents=0;collapsible=0;recursiveResize=0;shape=mxgraph.aws4.group;grIcon=mxgraph.aws4.group_vpc;strokeColor=#248814;fillColor=none;verticalAlign=top;align=left;spacingLeft=30;fontColor=#AAB7B8;dashed=0;" vertex="1" parent="1">
          <mxGeometry x="340" y="40" width="670" height="840" as="geometry" />
        </mxCell>
        <mxCell id="P7dvDb_oB8FZLkc3y2Xe-10" value="Public subnet" style="points=[[0,0],[0.25,0],[0.5,0],[0.75,0],[1,0],[1,0.25],[1,0.5],[1,0.75],[1,1],[0.75,1],[0.5,1],[0.25,1],[0,1],[0,0.75],[0,0.5],[0,0.25]];outlineConnect=0;gradientColor=none;html=1;whiteSpace=wrap;fontSize=12;fontStyle=0;container=1;pointerEvents=0;collapsible=0;recursiveResize=0;shape=mxgraph.aws4.group;grIcon=mxgraph.aws4.group_security_group;grStroke=0;strokeColor=#248814;fillColor=#E9F3E6;verticalAlign=top;align=left;spacingLeft=30;fontColor=#248814;dashed=0;labelBackgroundColor=default;" vertex="1" parent="P7dvDb_oB8FZLkc3y2Xe-1">
          <mxGeometry x="120" y="30" width="332" height="420" as="geometry" />
        </mxCell>
        <mxCell id="P7dvDb_oB8FZLkc3y2Xe-11" value="&lt;span style=&quot;caret-color: rgb(22, 25, 31); color: rgb(22, 25, 31); font-family: &amp;quot;Amazon Ember&amp;quot;, &amp;quot;Helvetica Neue&amp;quot;, Roboto, Arial, sans-serif; font-size: 14px; text-align: start; text-size-adjust: auto; background-color: rgb(241, 250, 255);&quot;&gt;&lt;span style=&quot;text-size-adjust: auto;&quot;&gt;prod-pismo-pub1-ap-south-1b&lt;/span&gt;&lt;br&gt;&lt;span style=&quot;text-size-adjust: auto;&quot;&gt;10.0.0.0/24&lt;/span&gt;&lt;br&gt;&lt;/span&gt;" style="text;html=1;resizable=0;autosize=1;align=center;verticalAlign=middle;points=[];fillColor=none;strokeColor=none;rounded=0;" vertex="1" parent="P7dvDb_oB8FZLkc3y2Xe-10">
          <mxGeometry x="10" y="20" width="220" height="50" as="geometry" />
        </mxCell>
        <mxCell id="P7dvDb_oB8FZLkc3y2Xe-17" value="" style="sketch=0;points=[[0,0,0],[0.25,0,0],[0.5,0,0],[0.75,0,0],[1,0,0],[0,1,0],[0.25,1,0],[0.5,1,0],[0.75,1,0],[1,1,0],[0,0.25,0],[0,0.5,0],[0,0.75,0],[1,0.25,0],[1,0.5,0],[1,0.75,0]];outlineConnect=0;fontColor=#232F3E;gradientColor=#F78E04;gradientDirection=north;fillColor=#D05C17;strokeColor=#ffffff;dashed=0;verticalLabelPosition=bottom;verticalAlign=top;align=center;html=1;fontSize=12;fontStyle=0;aspect=fixed;shape=mxgraph.aws4.resourceIcon;resIcon=mxgraph.aws4.ec2;" vertex="1" parent="P7dvDb_oB8FZLkc3y2Xe-10">
          <mxGeometry x="120.5" y="95" width="49" height="49" as="geometry" />
        </mxCell>
        <mxCell id="P7dvDb_oB8FZLkc3y2Xe-18" value="&lt;span style=&quot;caret-color: rgb(22, 25, 31); color: rgb(22, 25, 31); font-family: &amp;quot;Amazon Ember&amp;quot;, &amp;quot;Helvetica Neue&amp;quot;, Roboto, Arial, sans-serif; font-size: 14px; text-align: left; text-size-adjust: auto; background-color: rgb(241, 250, 255);&quot;&gt;&lt;br&gt;&lt;/span&gt;" style="text;html=1;resizable=0;autosize=1;align=center;verticalAlign=middle;points=[];fillColor=none;strokeColor=none;rounded=0;" vertex="1" parent="P7dvDb_oB8FZLkc3y2Xe-10">
          <mxGeometry x="135" y="155" width="20" height="30" as="geometry" />
        </mxCell>
        <mxCell id="P7dvDb_oB8FZLkc3y2Xe-19" value="&lt;span style=&quot;caret-color: rgb(22, 25, 31); color: rgb(22, 25, 31); font-family: &amp;quot;Amazon Ember&amp;quot;, &amp;quot;Helvetica Neue&amp;quot;, Roboto, Arial, sans-serif; font-size: 14px; text-align: start; text-size-adjust: auto; background-color: rgb(241, 250, 255);&quot;&gt;React App - ubuntu&lt;br&gt;&lt;/span&gt;" style="text;html=1;resizable=0;autosize=1;align=center;verticalAlign=middle;points=[];fillColor=none;strokeColor=none;rounded=0;" vertex="1" parent="P7dvDb_oB8FZLkc3y2Xe-10">
          <mxGeometry x="80" y="70" width="150" height="30" as="geometry" />
        </mxCell>
        <mxCell id="P7dvDb_oB8FZLkc3y2Xe-21" value="&lt;span style=&quot;caret-color: rgb(22, 25, 31); color: rgb(22, 25, 31); font-family: &amp;quot;Amazon Ember&amp;quot;, &amp;quot;Helvetica Neue&amp;quot;, Roboto, Arial, sans-serif; font-size: 14px; text-align: start; text-size-adjust: auto; background-color: rgb(255, 255, 255);&quot;&gt;vpc-07e1523e606c479e8&amp;nbsp;&lt;/span&gt;&lt;span style=&quot;caret-color: rgb(22, 25, 31); color: rgb(22, 25, 31); font-family: &amp;quot;Amazon Ember&amp;quot;, &amp;quot;Helvetica Neue&amp;quot;, Roboto, Arial, sans-serif; font-size: 14px; text-align: left; text-size-adjust: auto; background-color: rgb(255, 255, 255);&quot;&gt;ap-south-1b&amp;nbsp;&lt;/span&gt;&lt;span style=&quot;caret-color: rgb(22, 25, 31); color: rgb(22, 25, 31); font-family: &amp;quot;Amazon Ember&amp;quot;, &amp;quot;Helvetica Neue&amp;quot;, Roboto, Arial, sans-serif; font-size: 14px; text-align: left; text-size-adjust: auto; background-color: rgb(255, 255, 255);&quot;&gt;10.0.0.0/16&lt;/span&gt;" style="text;html=1;resizable=0;autosize=1;align=center;verticalAlign=middle;points=[];fillColor=none;strokeColor=none;rounded=0;" vertex="1" parent="P7dvDb_oB8FZLkc3y2Xe-1">
          <mxGeometry x="20" y="-5" width="340" height="30" as="geometry" />
        </mxCell>
        <mxCell id="P7dvDb_oB8FZLkc3y2Xe-35" value="RouteTable:&#xa;prod-pismo-pub1" style="shape=table;startSize=40;container=1;collapsible=1;childLayout=tableLayout;fixedRows=1;rowLines=0;fontStyle=1;align=center;resizeLast=1;fontSize=14;fontColor=#000000;" vertex="1" parent="P7dvDb_oB8FZLkc3y2Xe-1">
          <mxGeometry x="330" y="550" width="290" height="130" as="geometry" />
        </mxCell>
        <mxCell id="P7dvDb_oB8FZLkc3y2Xe-36" value="" style="shape=tableRow;horizontal=0;startSize=0;swimlaneHead=0;swimlaneBody=0;fillColor=none;collapsible=0;dropTarget=0;points=[[0,0.5],[1,0.5]];portConstraint=eastwest;top=0;left=0;right=0;bottom=1;fontSize=14;fontColor=#000000;" vertex="1" parent="P7dvDb_oB8FZLkc3y2Xe-35">
          <mxGeometry y="40" width="290" height="30" as="geometry" />
        </mxCell>
        <mxCell id="P7dvDb_oB8FZLkc3y2Xe-37" value="Destination" style="shape=partialRectangle;connectable=0;fillColor=none;top=0;left=0;bottom=0;right=0;fontStyle=1;overflow=hidden;fontSize=14;fontColor=#000000;" vertex="1" parent="P7dvDb_oB8FZLkc3y2Xe-36">
          <mxGeometry width="120" height="30" as="geometry">
            <mxRectangle width="120" height="30" as="alternateBounds" />
          </mxGeometry>
        </mxCell>
        <mxCell id="P7dvDb_oB8FZLkc3y2Xe-38" value="Target" style="shape=partialRectangle;connectable=0;fillColor=none;top=0;left=0;bottom=0;right=0;align=left;spacingLeft=6;fontStyle=5;overflow=hidden;fontSize=14;fontColor=#000000;" vertex="1" parent="P7dvDb_oB8FZLkc3y2Xe-36">
          <mxGeometry x="120" width="170" height="30" as="geometry">
            <mxRectangle width="170" height="30" as="alternateBounds" />
          </mxGeometry>
        </mxCell>
        <mxCell id="P7dvDb_oB8FZLkc3y2Xe-39" value="" style="shape=tableRow;horizontal=0;startSize=0;swimlaneHead=0;swimlaneBody=0;fillColor=none;collapsible=0;dropTarget=0;points=[[0,0.5],[1,0.5]];portConstraint=eastwest;top=0;left=0;right=0;bottom=0;fontSize=14;fontColor=#000000;" vertex="1" parent="P7dvDb_oB8FZLkc3y2Xe-35">
          <mxGeometry y="70" width="290" height="30" as="geometry" />
        </mxCell>
        <mxCell id="P7dvDb_oB8FZLkc3y2Xe-40" value="0.0.0.0/0" style="shape=partialRectangle;connectable=0;fillColor=none;top=0;left=0;bottom=0;right=0;editable=1;overflow=hidden;fontSize=14;fontColor=#000000;" vertex="1" parent="P7dvDb_oB8FZLkc3y2Xe-39">
          <mxGeometry width="120" height="30" as="geometry">
            <mxRectangle width="120" height="30" as="alternateBounds" />
          </mxGeometry>
        </mxCell>
        <mxCell id="P7dvDb_oB8FZLkc3y2Xe-41" value="igw-045c1a1259ece5f77" style="shape=partialRectangle;connectable=0;fillColor=none;top=0;left=0;bottom=0;right=0;align=left;spacingLeft=6;overflow=hidden;fontSize=14;fontColor=#000000;" vertex="1" parent="P7dvDb_oB8FZLkc3y2Xe-39">
          <mxGeometry x="120" width="170" height="30" as="geometry">
            <mxRectangle width="170" height="30" as="alternateBounds" />
          </mxGeometry>
        </mxCell>
        <mxCell id="P7dvDb_oB8FZLkc3y2Xe-42" value="" style="shape=tableRow;horizontal=0;startSize=0;swimlaneHead=0;swimlaneBody=0;fillColor=none;collapsible=0;dropTarget=0;points=[[0,0.5],[1,0.5]];portConstraint=eastwest;top=0;left=0;right=0;bottom=0;fontSize=14;fontColor=#000000;" vertex="1" parent="P7dvDb_oB8FZLkc3y2Xe-35">
          <mxGeometry y="100" width="290" height="30" as="geometry" />
        </mxCell>
        <mxCell id="P7dvDb_oB8FZLkc3y2Xe-43" value="10.0.0.0/16" style="shape=partialRectangle;connectable=0;fillColor=none;top=0;left=0;bottom=0;right=0;editable=1;overflow=hidden;fontSize=14;fontColor=#000000;" vertex="1" parent="P7dvDb_oB8FZLkc3y2Xe-42">
          <mxGeometry width="120" height="30" as="geometry">
            <mxRectangle width="120" height="30" as="alternateBounds" />
          </mxGeometry>
        </mxCell>
        <mxCell id="P7dvDb_oB8FZLkc3y2Xe-44" value="local" style="shape=partialRectangle;connectable=0;fillColor=none;top=0;left=0;bottom=0;right=0;align=left;spacingLeft=6;overflow=hidden;fontSize=14;fontColor=#000000;" vertex="1" parent="P7dvDb_oB8FZLkc3y2Xe-42">
          <mxGeometry x="120" width="170" height="30" as="geometry">
            <mxRectangle width="170" height="30" as="alternateBounds" />
          </mxGeometry>
        </mxCell>
        <mxCell id="P7dvDb_oB8FZLkc3y2Xe-45" value="" style="outlineConnect=0;dashed=0;verticalLabelPosition=bottom;verticalAlign=top;align=center;html=1;shape=mxgraph.aws3.internet_gateway;fillColor=#F58534;gradientColor=none;fontSize=14;fontColor=#000000;" vertex="1" parent="P7dvDb_oB8FZLkc3y2Xe-1">
          <mxGeometry x="640" y="346" width="60" height="60" as="geometry" />
        </mxCell>
        <mxCell id="P7dvDb_oB8FZLkc3y2Xe-49" value="" style="outlineConnect=0;dashed=0;verticalLabelPosition=bottom;verticalAlign=top;align=center;html=1;shape=mxgraph.aws3.classic_load_balancer;fillColor=#F58534;gradientColor=none;" vertex="1" parent="P7dvDb_oB8FZLkc3y2Xe-1">
          <mxGeometry x="10" y="204" width="69" height="72" as="geometry" />
        </mxCell>
      </root>
    </mxGraphModel>
  </diagram>
</mxfile>
